<svg t="1662804082966" class="icon" viewBox="0 0 1024 1024" version="1.1" xmlns="http://www.w3.org/2000/svg" p-id="5647" width="16" height="16"><path d="M1024 366.08l0 572.544C1024 985.792 986.112 1024 939.648 1024L84.352 1024C37.76 1024 0 985.792 0 938.624L0 366.08c0-47.168 37.76-85.376 84.352-85.376l185.344 0 0 54.656L136.512 335.36c-40.896 0-73.984 32.576-73.984 72.832l0 488.256c0 40.128 33.088 72.768 73.984 72.768l750.848 0c40.96 0 73.984-32.64 73.984-72.768L961.344 408.192c0-40.192-33.088-72.832-73.984-72.832l-133.12 0L754.24 280.704l185.344 0C986.112 280.704 1024 318.912 1024 366.08z" p-id="5648" ></path><path d="M543.808 541.888l338.496 0 0 33.28-338.496 0 0-33.28Z" p-id="5649" ></path><path d="M743.104 730.88l138.304 0 0 33.28-138.304 0 0-33.28Z" p-id="5650" ></path><path d="M741.504 824.768l138.304 0 0 33.216-138.304 0 0-33.216Z" p-id="5651" fill="#ffffff"></path><path d="M539.776 635.776l338.496 0 0 33.216-338.496 0 0-33.216Z" p-id="5652" ></path><path d="M314.944 261.504l394.048 0 0 126.592-394.048 0 0-126.592Z" p-id="5653" ></path><path d="M314.944 215.296l394.048 0 0 30.144-394.048 0 0-30.144Z" p-id="5654" ></path><path d="M708.992 118.848l0 80.32L314.944 199.168 314.944 118.848l115.264 0L430.208 82.688C430.272 37.056 466.816 0 512 0c45.12 0 81.664 37.056 81.664 82.688l0 36.16L708.992 118.848zM543.808 67.52c0-17.792-14.272-32.128-31.808-32.128-17.536 0-31.808 14.4-31.808 32.128S494.464 99.648 512 99.648C529.472 99.648 543.808 85.312 543.808 67.52z" p-id="5655" ></path><path d="M445.504 700.096c0 95.616 0 118.144 0 118.144L348.352 818.24 281.472 818.24 184.384 818.24c0 0 0-22.528 0-118.144 0-54.72 43.008-79.168 79.68-90.112l50.944 144.448 50.88-144.448C402.496 620.928 445.504 645.376 445.504 700.096z" p-id="5656" ></path><path d="M313.28 486.464c37.952 0 47.872 28.224 47.872 63.04S334.08 612.48 313.28 612.48c-20.736 0-47.872-28.16-47.872-62.976S275.264 486.464 313.28 486.464z" p-id="5657" ></path><path d="M319.168 624 334.336 673.92 315.008 723.776 296.448 673.92 310.912 624Z" p-id="5658" ></path></svg>