<svg t="1662803965565" class="icon" viewBox="0 0 1024 1024" version="1.1" xmlns="http://www.w3.org/2000/svg" p-id="5045" width="16" height="16"><path d="M899.9 287.9c-76.1-131.6-209.2-210.3-350-222.3-12.8-1.1-25.7-1.7-38.5-1.7-75.9 0-152.8 19.5-223.4 60.1-82.5 47.6-144 117.5-181.5 197.5C46.5 449.8 48 604 123.9 735.9c76.1 131.8 209 210.3 350 222.5 12.8 1.1 25.6 1.7 38.5 1.7 75.9 0 152.8-19.5 223.4-60.1 82.5-47.6 144-117.5 181.5-197.5 60.2-128.3 58.7-282.8-17.4-414.6z m-452.6 624c-3.7-0.6-7.4-1.3-11.1-2-3.1-0.6-6.2-1.1-9.3-1.8-5.1-1.1-10.1-2.4-15.1-3.7-2.6-0.7-5.2-1.2-7.8-2-7-1.9-13.9-4.1-20.8-6.4-0.5-0.2-1.1-0.3-1.7-0.5-7.4-2.5-14.7-5.3-21.9-8.2-2.4-1-4.8-2.1-7.3-3.2-4.7-2-9.4-4-14.1-6.2-2.9-1.4-5.6-2.8-8.5-4.3-4.1-2.1-8.3-4.1-12.3-6.4-2.9-1.6-5.8-3.3-8.7-5-3.8-2.2-7.7-4.5-11.4-6.8-2.9-1.8-5.7-3.7-8.6-5.6-3.6-2.4-7.3-4.8-10.8-7.3-2.8-2-5.6-4-8.4-6.1-3.5-2.6-6.9-5.2-10.3-7.9l-8.1-6.6c-3.3-2.8-6.6-5.6-9.8-8.5-2.6-2.3-5.1-4.6-7.6-7-3.2-3-6.3-6.1-9.4-9.2-2.4-2.4-4.8-4.8-7.1-7.3-3.1-3.3-6.1-6.6-9.1-10-2.2-2.5-4.4-4.9-6.6-7.5-3-3.6-6-7.3-8.9-11.1-1.9-2.5-3.9-4.9-5.8-7.4-3.2-4.2-6.2-8.6-9.2-13-1.5-2.1-3-4.2-4.5-6.4-4.4-6.6-8.6-13.4-12.5-20.3-4-6.9-7.7-13.9-11.3-21-1.2-2.3-2.2-4.7-3.3-7-2.3-4.8-4.6-9.6-6.6-14.4-1.2-2.8-2.3-5.7-3.5-8.6-1.8-4.4-3.6-8.9-5.2-13.3-1.1-3.1-2.1-6.2-3.2-9.3-1.4-4.3-2.9-8.6-4.2-13-1-3.3-1.8-6.5-2.7-9.8-1.2-4.3-2.3-8.5-3.3-12.8-0.8-3.3-1.5-6.7-2.2-10.1-0.9-4.3-1.7-8.5-2.5-12.8-0.6-3.4-1.1-6.8-1.7-10.2-0.6-4.3-1.2-8.6-1.7-12.9-0.4-3.4-0.8-6.9-1.1-10.3-0.4-4.3-0.7-8.7-0.9-13-0.2-3.4-0.4-6.8-0.5-10.2-0.1-4.4-0.2-8.8-0.2-13.3v-10.1c0.1-4.6 0.4-9.1 0.6-13.7 0.2-3.2 0.3-6.4 0.6-9.6 0.4-5 1-9.9 1.6-14.9 0.3-2.8 0.6-5.5 0.9-8.3 1-7.2 2.2-14.3 3.6-21.4 0.3-1.6 0.7-3.2 1-4.8 1.4-6.6 2.8-13.1 4.5-19.6 0.7-2.7 1.6-5.4 2.3-8.2 1.4-4.8 2.7-9.7 4.2-14.4 1-3.1 2.1-6.1 3.2-9.2 1.2-3.5 2.4-6.9 3.7-10.3 119.5 19.4 225 91.5 286.2 197.3 61.7 106 71.5 233.5 28.4 346.9z m267.3-49c-61.8 35.6-131.7 54.4-202.1 54.4-7.2 0-14.4-0.6-21.6-0.9 41.8-119 33.5-254.8-34.5-372.5-68-117.5-181.5-192.7-305.3-216C186.7 258 241 200.4 309.2 161.1c61.8-35.6 131.7-54.4 202.1-54.4 7.1 0 14.4 0.6 21.6 0.9-41.8 119-33.5 254.5 34.5 372.3 68 117.8 181.4 192.8 305.3 216.2C837 766 782.8 823.6 714.6 862.9zM917 521.5c-0.1 4.7-0.4 9.4-0.7 14.1-0.2 3.1-0.3 6.2-0.5 9.3-0.4 5.2-1 10.3-1.7 15.5-0.3 2.6-0.5 5.1-0.9 7.7-1.1 7.7-2.4 15.4-3.9 23.1l-0.3 1.2c-1.5 7.2-3.1 14.5-5 21.6-0.7 2.6-1.5 5.1-2.2 7.6-1.4 5-2.8 10-4.4 15-1 3-2.1 6-3.1 9-1.2 3.5-2.5 7-3.8 10.5-119.7-19.5-225.2-91.7-286.2-197.5-61.1-105.7-70.8-233.2-27.8-346.5 3.7 0.6 7.4 1.3 11 2 3.1 0.6 6.2 1.1 9.3 1.8 5 1.1 10 2.4 15 3.6 2.6 0.7 5.3 1.2 7.9 2 7 1.9 13.9 4.1 20.8 6.4 0.5 0.2 1.1 0.3 1.7 0.5 7.4 2.5 14.6 5.2 21.8 8.2 2.4 1 4.8 2.1 7.2 3.1 4.7 2 9.5 4 14.1 6.3 2.8 1.3 5.6 2.8 8.4 4.2 4.1 2.1 8.3 4.2 12.3 6.4 2.9 1.6 5.8 3.3 8.7 5 3.8 2.2 7.7 4.5 11.4 6.8 2.9 1.8 5.7 3.7 8.6 5.6 3.6 2.4 7.3 4.8 10.8 7.3 2.8 2 5.6 4 8.4 6.1 3.5 2.6 6.9 5.2 10.3 7.9l8.1 6.6c3.3 2.8 6.6 5.6 9.8 8.5 2.6 2.3 5.1 4.6 7.7 7 3.2 3 6.3 6.1 9.4 9.2 2.4 2.4 4.9 4.9 7.2 7.4 3.1 3.3 6.1 6.6 9.1 10 2.2 2.5 4.4 4.9 6.6 7.5 3 3.6 6 7.4 8.9 11.1 1.9 2.5 3.9 4.9 5.8 7.4 3.1 4.2 6.1 8.5 9.1 12.8 1.5 2.2 3.1 4.3 4.6 6.6 4.4 6.6 8.6 13.4 12.6 20.3s7.7 13.9 11.3 21c1.2 2.4 2.2 4.8 3.4 7.2 2.3 4.7 4.5 9.5 6.6 14.3 1.3 2.9 2.4 5.9 3.5 8.8 1.8 4.4 3.5 8.7 5.1 13.1 1.1 3.1 2.2 6.3 3.2 9.5 1.4 4.3 2.8 8.5 4.1 12.9 1 3.3 1.9 6.5 2.7 9.8 1.2 4.3 2.3 8.5 3.3 12.8 0.8 3.3 1.5 6.7 2.2 10.1 0.9 4.3 1.7 8.6 2.5 12.9 0.6 3.4 1.1 6.8 1.7 10.2 0.6 4.3 1.2 8.7 1.7 13 0.4 3.4 0.8 6.8 1.1 10.2 0.4 4.4 0.7 8.8 0.9 13.2 0.2 3.4 0.4 6.8 0.5 10.1 0.1 4.5 0.2 9 0.2 13.5-0.1 2.7 0 5.9-0.1 9.2z"  p-id="5046"></path></svg>