<svg t="1666254100806" class="icon" viewBox="0 0 1024 1024" version="1.1" xmlns="http://www.w3.org/2000/svg" p-id="2312" width="128" height="128"><path d="M806 911H617.6c-11.6 0-21-9.4-21-21s9.4-21 21-21H806c34.7 0 63-28.3 63-63V638c0-11.6 9.4-21 21-21s21 9.4 21 21v168c0 57.9-47.1 105-105 105zM890 407c-11.6 0-21-9.4-21-21V218c0-34.7-28.3-63-63-63H617.6c-11.6 0-21-9.4-21-21s9.4-21 21-21H806c57.9 0 105 47.1 105 105v168c0 11.6-9.4 21-21 21zM134 407c-11.6 0-21-9.4-21-21V218c0-57.9 47.1-105 105-105h189.6c11.6 0 21 9.4 21 21s-9.4 21-21 21H218c-34.7 0-63 28.3-63 63v168c0 11.6-9.4 21-21 21zM407.6 911H218c-57.9 0-105-47.1-105-105V638c0-11.6 9.4-21 21-21s21 9.4 21 21v168c0 34.7 28.3 63 63 63h189.6c11.6 0 21 9.4 21 21s-9.4 21-21 21z" fill="" p-id="2313"></path><path d="M732.8 756.6C718.2 672.8 658.5 607 581.2 582c58.2-26.3 98.8-85 98.8-153 0-92.7-75.4-168-168-168s-168 75.3-168 168c0 68 40.6 126.7 98.8 153.1-77.3 24.9-137 90.7-151.6 174.4-2 11.4 5.6 22.3 17.1 24.3 11.3 1.9 22.3-5.7 24.3-17.1 15.3-87.2 90.7-150.5 179.4-150.5 88.8 0 164.2 63.3 179.4 150.6 1.8 10.2 10.6 17.4 20.7 17.4 1.2 0 2.4-0.1 3.6-0.3 11.5-2 19.1-12.9 17.1-24.3zM386 429c0-69.6 56.4-126 126-126s126 56.4 126 126-56.4 126-126 126-126-56.4-126-126z" fill="" p-id="2314"></path></svg>