<svg t="1666253879791" class="icon" viewBox="0 0 1024 1024" version="1.1" xmlns="http://www.w3.org/2000/svg" p-id="1663" width="128" height="128"><path d="M32 864a32 32 0 0 0 64 0 256 256 0 0 1 256-256 254.08 254.08 0 0 1 101.888 21.376c4.224-21.376 10.56-41.856 18.944-61.376A318.848 318.848 0 0 0 352 544a320 320 0 0 0-320 320zM352 96a192 192 0 1 0 0 384 192 192 0 0 0 0-384z m0 320.192a128.192 128.192 0 1 1 0-256.448 128.192 128.192 0 0 1 0 256.448zM752 448a240 240 0 1 0 0 480 240 240 0 0 0 0-480z m0 416a176 176 0 1 1 0-352 176 176 0 1 1 0 352z"  p-id="1664"></path><path d="M885.376 617.536a34.752 34.752 0 0 0-49.152 0l-103.36 103.424-39.872-39.872a31.104 31.104 0 0 0-43.904 43.904l65.856 65.856a30.976 30.976 0 0 0 33.984 6.592 33.856 33.856 0 0 0 13.632-8.064l122.752-122.752a34.752 34.752 0 0 0 0.064-49.088z"  p-id="1665"></path></svg>