<svg t="1666254140960" class="icon" viewBox="0 0 1024 1024" version="1.1" xmlns="http://www.w3.org/2000/svg" p-id="2467" width="128" height="128"><path d="M872 130.1H152c-29.1 0-52.8 23.7-52.8 52.8v490.8c0 29.1 23.7 52.8 52.8 52.8h720c29.1 0 52.8-23.7 52.8-52.8V182.9c0-29.1-23.7-52.8-52.8-52.8z m-17.2 526.5H169.2V200.1h685.6v456.5zM799.6 815.7H224.4c-19.3 0-35 15.7-35 35s15.7 35 35 35h575.2c19.3 0 35-15.7 35-35 0-19.4-15.7-35-35-35z" p-id="2468"></path><path d="M246.6 529c13.7 13.7 35.8 13.7 49.5 0l88.3-88.3c13.7-13.7 35.8-13.7 49.5 0l111.9 111.9c13.7 13.7 35.8 13.7 49.5 0l182-182c13.7-13.7 13.7-35.8 0-49.5-13.7-13.7-35.8-13.7-49.5 0L595.4 453.6c-13.7 13.7-35.8 13.7-49.5 0L434 341.7c-13.7-13.7-35.8-13.7-49.5 0L246.6 479.5c-13.6 13.7-13.6 35.8 0 49.5z" p-id="2469"></path></svg>