<svg t="1662804283587" class="icon" viewBox="0 0 1024 1024" version="1.1" xmlns="http://www.w3.org/2000/svg" p-id="6504" width="16" height="16"><path d="M512.96 161.28a24.96 24.96 0 0 1 24.96 24.48v56.48a260.48 260.48 0 0 1 233.44 259.04v225.6h83.52a25.12 25.12 0 0 1 0 50.24H611.04a99.36 99.36 0 0 1-198.08 0H168.96A25.12 25.12 0 0 1 144 754.56v-5.12a25.12 25.12 0 0 1 24.32-22.56h82.4v-225.6a260.32 260.32 0 0 1 237.12-259.36v-55.52a25.12 25.12 0 0 1 25.12-25.12m0-64a89.28 89.28 0 0 0-89.12 89.12v2.24a322.24 322.24 0 0 0-237.12 312.64v161.6h-19.84a89.28 89.28 0 0 0-86.56 80V760.64a88.8 88.8 0 0 0 88.64 80h196.32a163.04 163.04 0 0 0 293.44 0h198.24a89.12 89.12 0 0 0-2.08-178.08h-19.52V501.28a323.52 323.52 0 0 0-233.44-311.52v-5.44a89.6 89.6 0 0 0-88.96-87.04zM872 347.04a32 32 0 0 1-29.92-20.64 232.48 232.48 0 0 0-139.04-140.64 32 32 0 0 1 17.76-61.44A295.68 295.68 0 0 1 901.92 304a32 32 0 0 1-18.72 41.28 34.4 34.4 0 0 1-11.2 1.76z" p-id="6505" ></path></svg>